<svg width="24" height="24" viewBox="0 0 24 24" fill="none" xmlns="http://www.w3.org/2000/svg">
<path fill-rule="evenodd" clip-rule="evenodd" d="M10.1713 19C10.4633 19 10.7533 18.873 10.9513 18.627L15.7793 12.627C16.0773 12.256 16.0733 11.726 15.7683 11.36L10.7683 5.35998C10.4153 4.93598 9.78434 4.87898 9.35934 5.23198C8.93534 5.58498 8.87834 6.21598 9.23234 6.63998L13.7073 12.011L9.39234 17.373C9.04634 17.803 9.11434 18.433 9.54534 18.779C9.72934 18.928 9.95134 19 10.1713 19Z" fill="white"/>
<mask id="mask0_2_324" style="mask-type:luminance" maskUnits="userSpaceOnUse" x="9" y="5" width="7" height="14">
<path fill-rule="evenodd" clip-rule="evenodd" d="M10.1713 19C10.4633 19 10.7533 18.873 10.9513 18.627L15.7793 12.627C16.0773 12.256 16.0733 11.726 15.7683 11.36L10.7683 5.35998C10.4153 4.93598 9.78434 4.87898 9.35934 5.23198C8.93534 5.58498 8.87834 6.21598 9.23234 6.63998L13.7073 12.011L9.39234 17.373C9.04634 17.803 9.11434 18.433 9.54534 18.779C9.72934 18.928 9.95134 19 10.1713 19Z" fill="white"/>
</mask>
<g mask="url(#mask0_2_324)">
<rect width="24" height="24" transform="matrix(-1 0 0 1 24 0)" fill="white"/>
</g>
</svg>
